<svg width="1920" height="1080" viewBox="0 0 1920 1080" fill="none" xmlns="http://www.w3.org/2000/svg">
<rect width="1920" height="1080" fill="#FF4655"/>
<g filter="url(#filter0_d_1_84)">
<path d="M147.09 589.967V1027.38C147.09 1036.2 154.241 1043.35 163.062 1043.35H1824.03C1832.85 1043.35 1840 1036.2 1840 1027.38V51.9728C1840 43.1513 1832.85 36.0001 1824.03 36.0001H163.062C154.241 36.0001 147.09 43.1513 147.09 51.9728V203.685C147.09 208.533 144.888 213.118 141.105 216.149L84.9843 261.123C81.2014 264.155 79 268.74 79 273.587V492.183C79 495.759 80.2002 499.232 82.4084 502.045L143.681 580.105C145.889 582.918 147.09 586.391 147.09 589.967Z" fill="white"/>
</g>
<path fill-rule="evenodd" clip-rule="evenodd" d="M119 430.188C121.14 430.191 123.242 429.628 125.094 428.556V424.562C125.094 423.444 124.649 422.371 123.858 421.579C123.067 420.788 121.994 420.344 120.875 420.344H117.125C116.006 420.344 114.933 420.788 114.142 421.579C113.351 422.371 112.906 423.444 112.906 424.562V428.556C114.758 429.628 116.86 430.191 119 430.188ZM127.906 424.562V426.319C129.528 424.584 130.606 422.412 131.01 420.072C131.414 417.731 131.125 415.323 130.179 413.145C129.233 410.966 127.671 409.112 125.685 407.809C123.698 406.506 121.375 405.812 119 405.812C116.625 405.812 114.302 406.506 112.315 407.809C110.329 409.112 108.767 410.966 107.821 413.145C106.875 415.323 106.586 417.731 106.99 420.072C107.394 422.412 108.472 424.584 110.094 426.319V424.562C110.093 423.113 110.541 421.698 111.375 420.513C112.21 419.327 113.39 418.429 114.755 417.94C114.047 417.126 113.588 416.125 113.433 415.057C113.278 413.989 113.434 412.899 113.881 411.917C114.329 410.935 115.049 410.102 115.957 409.519C116.865 408.935 117.921 408.624 119 408.624C120.079 408.624 121.135 408.935 122.043 409.519C122.951 410.102 123.671 410.935 124.119 411.917C124.566 412.899 124.722 413.989 124.567 415.057C124.412 416.125 123.953 417.126 123.245 417.94C124.61 418.429 125.79 419.327 126.625 420.513C127.459 421.698 127.907 423.113 127.906 424.562ZM119 433C122.978 433 126.794 431.42 129.607 428.607C132.42 425.794 134 421.978 134 418C134 414.022 132.42 410.206 129.607 407.393C126.794 404.58 122.978 403 119 403C115.022 403 111.206 404.58 108.393 407.393C105.58 410.206 104 414.022 104 418C104 421.978 105.58 425.794 108.393 428.607C111.206 431.42 115.022 433 119 433ZM121.812 414.25C121.812 414.996 121.516 415.711 120.989 416.239C120.461 416.766 119.746 417.062 119 417.062C118.254 417.062 117.539 416.766 117.011 416.239C116.484 415.711 116.188 414.996 116.188 414.25C116.188 413.504 116.484 412.789 117.011 412.261C117.539 411.734 118.254 411.438 119 411.438C119.746 411.438 120.461 411.734 120.989 412.261C121.516 412.789 121.812 413.504 121.812 414.25Z" fill="#ECE8E1"/>
<path d="M124 491L114 487.5L106.25 490.5C105.694 490.722 105.181 490.66 104.708 490.313C104.236 489.967 104 489.501 104 488.917V465.583C104 465.222 104.104 464.903 104.313 464.625C104.522 464.347 104.807 464.139 105.167 464L114 461L124 464.5L131.75 461.5C132.306 461.278 132.819 461.341 133.292 461.688C133.764 462.036 134 462.501 134 463.083V486.417C134 486.778 133.896 487.097 133.688 487.375C133.481 487.653 133.196 487.861 132.833 488L124 491ZM122.333 486.917V467.417L115.667 465.083V484.583L122.333 486.917ZM125.667 486.917L130.667 485.25V465.5L125.667 467.417V486.917ZM107.333 486.5L112.333 484.583V465.083L107.333 466.75V486.5Z" fill="#FF4655"/>
<path d="M124.512 370.002L119 367.531L113.488 370.002L114.95 365.23L110.094 362.03L116.488 361.616L119 357.144L121.512 361.616L127.906 362.03L123.05 365.23M134 345H104V347.857L113.113 353.058C109.933 354.092 107.32 355.93 105.715 358.263C104.11 360.596 103.612 363.279 104.304 365.86C104.996 368.44 106.837 370.759 109.515 372.425C112.193 374.09 115.543 375 119 375C122.457 375 125.807 374.09 128.485 372.425C131.163 370.759 133.004 368.44 133.696 365.86C134.388 363.279 133.89 360.596 132.285 358.263C130.68 355.93 128.067 354.092 124.887 353.058L134 347.857M130.25 363.573C130.251 365.197 129.647 366.787 128.508 368.159C127.37 369.531 125.743 370.628 123.818 371.324C121.892 372.019 119.748 372.283 117.633 372.086C115.518 371.889 113.52 371.238 111.872 370.209C110.224 369.181 108.993 367.817 108.322 366.276C107.651 364.735 107.569 363.081 108.084 361.505C108.598 359.93 109.69 358.499 111.231 357.377C112.772 356.256 114.699 355.492 116.788 355.172C118.247 354.945 119.753 354.945 121.212 355.172C123.76 355.562 126.053 356.611 127.7 358.143C129.348 359.674 130.249 361.593 130.25 363.573ZM120.181 352.144H117.819L110.319 347.857H127.831L120.181 352.144Z" fill="#ECE8E1"/>
<path d="M107.75 313.667H113.375V303.667H124.625V313.667H130.25V298.667L119 291.167L107.75 298.667V313.667ZM104 317V297L119 287L134 297V317H120.875V307H117.125V317H104Z" fill="#ECE8E1"/>
<defs>
<filter id="filter0_d_1_84" x="59" y="20.0001" width="1801" height="1047.35" filterUnits="userSpaceOnUse" color-interpolation-filters="sRGB">
<feFlood flood-opacity="0" result="BackgroundImageFix"/>
<feColorMatrix in="SourceAlpha" type="matrix" values="0 0 0 0 0 0 0 0 0 0 0 0 0 0 0 0 0 0 127 0" result="hardAlpha"/>
<feOffset dy="4"/>
<feGaussianBlur stdDeviation="10"/>
<feComposite in2="hardAlpha" operator="out"/>
<feColorMatrix type="matrix" values="0 0 0 0 0 0 0 0 0 0 0 0 0 0 0 0 0 0 0.25 0"/>
<feBlend mode="normal" in2="BackgroundImageFix" result="effect1_dropShadow_1_84"/>
<feBlend mode="normal" in="SourceGraphic" in2="effect1_dropShadow_1_84" result="shape"/>
</filter>
</defs>
</svg>
